<?xml version="1.0" encoding="UTF-8"?>
<svg xmlns="http://www.w3.org/2000/svg" version="1.1" viewBox="0 0 283.3 361">
  <defs>
    <style>
      .cls-1 {
        fill: #fff;
        fill-rule: evenodd;
      }
    </style>
  </defs>
  <!-- Generator: Adobe Illustrator 28.6.0, SVG Export Plug-In . SVG Version: 1.2.0 Build 709)  -->
  <g>
    <g id="Layer_1">
      <path class="cls-1" d="M270,0c-1.3.1-12.7,2.1-14,2.4l-157.6,31.8h0c-4.2.9-7.3,2.3-9.8,4.4-3,2.5-4.6,6.1-5.3,10.3-.1.9-.3,2.7-.3,5.3v197.3c0,4.6-.3,9.1-3.5,13s-6.9,5-11.6,5.9c-3.5.7-6.8,1.4-10.3,2.1-13.1,2.7-21.5,4.4-29.1,7.4-7.3,2.9-12.8,6.5-17.2,11.1-8.7,9.1-12.1,21.4-11,33,1,9.8,5.4,19.3,13.1,26.3,5.1,4.7,11.6,8.3,19.2,9.8,7.9,1.6,16.2,1,28.5-1.4,6.5-1.3,12.6-3.4,18.4-6.8,5.8-3.4,10.6-7.9,14.5-13.4,3.8-5.6,6.4-11.7,7.7-18.2,1.4-6.7,1.7-12.8,1.7-19.5v-171.2c0-9.1,2.5-11.6,9.9-13.4,0,0,131-26.5,137.2-27.6,8.6-1.6,12.6.8,12.6,9.7v116.8c0,4.6,0,9.4-3.2,13.2-3.1,3.8-6.9,5-11.6,5.9l-10.3,2.1c-13.1,2.7-21.5,4.4-29.1,7.4-7.3,2.9-12.8,6.5-17.2,11.1-8.7,9.1-12.5,21.4-11.3,33,1,9.8,5.8,19.3,13.4,26.3,5.1,4.7,11.6,8.2,19.2,9.7,7.9,1.6,16.2,1,28.5-1.4,6.5-1.3,12.6-3.2,18.4-6.7,5.8-3.4,10.6-7.9,14.5-13.4,3.8-5.6,6.4-11.7,7.7-18.2,1.4-6.7,1.5-12.8,1.5-19.5V14.1c0-9-4.7-14.7-13.3-14Z"/>
    </g>
  </g>
</svg>